<?xml version="1.0" standalone="no"?><!DOCTYPE svg PUBLIC "-//W3C//DTD SVG 1.1//EN" "http://www.w3.org/Graphics/SVG/1.1/DTD/svg11.dtd"><svg t="1782651485185" class="icon" viewBox="0 0 1024 1024" version="1.1" xmlns="http://www.w3.org/2000/svg" p-id="2480" xmlns:xlink="http://www.w3.org/1999/xlink" width="200" height="200"><path d="M866.176 838.161067c13.6448-3.805867 28.416 33.723733 29.713067 43.844266 1.629867 12.740267 1.28 56.823467-12.475734 60.987734l-11.921066-5.154134c6.272-23.5264 10.3936-40.925867 1.809066-64.768-3.925333-10.897067-19.6352-25.352533-7.125333-34.901333z" fill="#522F27" p-id="2481"></path><path d="M927.291733 922.0608l-13.755733 0.093867c-3.490133-12.893867 1.7152-26.282667-0.136533-40.149334-1.373867-10.2912-13.098667-21.691733-1.681067-29.832533 21.538133-5.9392 20.667733 45.431467 19.2512 57.787733-0.4864 4.215467-3.652267 7.748267-3.677867 12.100267z" fill="#502E26" p-id="2482"></path><path d="M251.298133 904.721067c-3.857067 0.512-14.1312 8.738133-17.297066-1.962667-3.473067-11.758933 14.737067-53.162667 10.1632-57.463467-5.802667-0.733867-11.349333-3.566933-16.324267-6.459733-58.001067-33.6896-117.4272-79.291733-156.8256-133.9648-27.613867-38.331733-58.248533-103.816533-29.448533-148.258133 33.5616-51.780267 96.1024-13.9008 129.134933 18.781866-1.262933-9.617067-5.563733-20.471467-6.920533-29.858133-16.034133-110.8736 41.668267-204.5184 106.9568-288.785067C286.301867 186.4192 323.84 49.066667 386.6624 8.302933c13.0048-8.439467 29.755733-9.403733 45.0048-7.441066 22.784 2.935467 66.722133 46.4896 82.4576 64.6912 8.7552 10.120533 36.974933 55.330133 44.168533 57.437866 77.1072 3.3792 151.2448 27.229867 220.279467 60.1088 47.368533-21.0432 112.128-45.934933 164.6592-38.638933 26.8288 3.729067 42.999467 37.640533 47.232 61.380267 14.045867 78.916267-16.5376 176.1792-40.704 252.16 18.9696 120.738133-1.672533 269.124267-115.677867 337.570133-14.318933 8.593067-34.235733 18.4064-50.244266 21.614933-2.653867 11.485867 5.3504 18.542933 8.797866 27.9296 20.829867 56.704 33.655467 114.176 29.636267 175.1808l-8.704 2.986667c-1.809067 0-4.829867-5.623467-8.7296-6.434133-0.657067-53.307733-9.685333-108.356267-28.7744-158.660267-2.2016-5.8112-9.9072-26.709333-13.115733-28.945067l-75.554134 12.3648c-29.687467-0.7168-59.648 1.245867-89.2672 0.068267-80.7936-3.191467-181.4528-34.4576-252.253866-73.5744-40.32-22.272-96.4352-68.130133-126.199467-103.287467-14.429867-17.041067-23.168-39.048533-38.468267-54.3744-9.4464-9.463467-25.949867-23.2704-36.718933-31.598933-20.565333-15.906133-51.4304-38.852267-77.294933-21.102933-25.344 17.399467-16.7424 62.830933-6.912 87.790933 7.133867 18.1248 18.4576 33.518933 29.832533 48.9984 32.7936 44.612267 80.896 86.1952 128.418133 115.080533 6.775467 4.113067 28.680533 17.988267 34.4832 18.0736l8.661334-19.464533 13.994666 2.056533-0.5376 14.976-23.850666 79.496534zM188.228267 463.274667c-0.1792 1.134933 0.145067 2.3552 0 3.5072-0.1024 0.776533-6.587733 6.5792-3.5072 14.011733v52.5568c-3.089067 7.227733 3.370667 13.243733 3.5072 14.011733 23.278933 132.514133 179.780267 221.661867 300.398933 254.907734 97.9712 26.999467 248.226133 31.351467 336.170667-26.496 4.693333-3.080533 9.7792-5.2224 11.579733-11.195734 10.5472-5.947733 23.099733-17.4848 31.6928-26.222933 20.369067-20.718933 30.071467-40.942933 41.8816-68.369067 28.817067-66.901333 24.891733-113.390933 21.0944-184.004266-2.696533-50.082133 16.7424-83.3792 27.153067-130.363734 10.478933-47.351467 18.722133-105.156267 10.641066-152.669866-8.1664-48.008533-50.193067-41.028267-87.8592-33.152-36.2752 7.586133-71.176533 23.842133-105.386666 37.333333-72.388267-41.156267-154.146133-59.204267-236.689067-66.500267-19.6352-36.4032-53.674667-78.7456-86.101333-104.840533-19.618133-15.786667-37.666133-23.458133-59.690667-7.0144-34.602667 25.838933-71.1936 119.005867-84.113067 161.134933-7.04 22.9632-11.579733 57.1136-20.855466 77.243734-4.804267 10.4192-14.600533 18.773333-20.932267 28.117333-36.462933 53.888-68.923733 102.7584-78.984533 168.0128z" fill="#4C2920" p-id="2483"></path><path d="M345.890133 768.085333c-7.1168 1.604267-6.784 8.635733-8.7296 14.037334-15.266133 42.257067-24.302933 85.137067-26.299733 129.6128-6.3488-0.273067-12.842667 0.5376-19.208533-0.0768-9.787733-0.9472-32.008533-8.055467-40.362667-6.9376l23.850667-79.496534 0.5376-14.976-13.994667-2.056533-8.661333 19.464533c-5.802667-0.0768-27.707733-13.952-34.4832-18.0736-47.522133-28.885333-95.624533-70.468267-128.418134-115.080533 8.644267 0.341333 18.551467-6.562133 25.736534-11.050667 29.3376-18.304 51.054933-41.233067 65.348266-73.0368 15.300267 15.325867 24.0384 37.3248 38.468267 54.3744 29.764267 35.157333 85.879467 81.006933 126.199467 103.287467z" fill="#F8C37D" p-id="2484"></path><path d="M804.855467 1016.832c-8.516267-1.774933-123.400533-1.800533-129.629867 0-1.962667-25.250133 2.688-54.0416-0.017067-78.805333-1.066667-9.770667-5.12-13.269333-13.994666-15.786667 1.570133-5.265067 0.6912-36.1472-0.0768-43.716267-1.024-10.069333-6.826667-22.596267-7.022934-33.271466-12.1856-0.256-24.456533 0.008533-36.6848-0.093867-5.76-0.0512-16.3584 2.5856-19.2768-3.490133 29.6192 1.169067 59.588267-0.785067 89.2672-0.068267l75.554134-12.3648c3.208533 2.235733 10.9056 23.133867 13.115733 28.945067 19.089067 50.304 28.117333 105.361067 28.7744 158.660266z" fill="#F9C37E" p-id="2485"></path><path d="M661.213867 922.24c8.874667 2.517333 12.928 6.016 13.994666 15.786667 2.705067 24.763733-1.9456 53.563733 0.017067 78.805333-1.399467 0.401067-7.1936 8.6272-12.0832 6.9376-3.848533-1.041067-8.328533-11.477333-8.9344-15.701333-2.082133-14.481067-1.604267-69.290667 2.747733-81.476267 0.904533-2.525867 4.155733-4.0192 4.258134-4.352z" fill="#543225" p-id="2486"></path><path d="M188.228267 463.274667c10.0608-65.262933 42.5216-114.1248 78.984533-168.0128 6.3232-9.352533 16.128-17.706667 20.932267-28.117334 9.275733-20.130133 13.815467-54.272 20.855466-77.243733 12.919467-42.129067 49.5104-135.296 84.113067-161.134933 22.024533-16.452267 40.072533-8.7808 59.690667 7.0144 32.418133 26.094933 66.466133 68.445867 86.101333 104.840533 82.542933 7.296 164.3008 25.344 236.689067 66.500267 34.2016-13.4912 69.111467-29.755733 105.386666-37.333334 37.666133-7.876267 79.6928-14.856533 87.8592 33.152 8.081067 47.5136-0.162133 105.326933-10.641066 152.669867-10.402133 46.993067-29.841067 80.2816-27.153067 130.363733 3.797333 70.621867 7.722667 117.102933-21.0944 184.004267-4.027733-15.3088-3.515733-28.791467-11.016533-43.2896-9.156267-17.6896-18.0224-21.768533-34.525867-30.2848-6.8352-3.524267-9.6256-4.6848-17.518933-7.005867-0.3328-0.1024-0.6912-2.568533-2.449067-2.9952-2.594133-1.297067-5.7088-0.128-8.064-0.512-4.266667-0.6912-9.5232 0.494933-14.011733 0-10.820267-1.194667-23.9104-6.2208-36.9408-3.652266l-43.639467 7.159466c-8.0896-0.059733-16.477867 0.546133-24.5248 0-8.302933-0.5632-13.175467-1.5872-21.0176-3.5072-58.88-14.395733-55.816533-65.288533-106.171733-88.277333-11.938133-5.4528-44.458667-14.5664-56.610134-13.354667-32.648533 3.242667-63.837867 25.821867-94.8992 28.177067-5.435733 0.4096-9.198933-2.7648-14.037333-3.5584-4.010667-0.657067-9.156267 0.725333-12.066133-0.068267-4.8896-1.339733-33.911467-17.706667-38.536534-21.0176-25.856-18.542933-36.625067-35.694933-70.0672-49.0496-10.8032-4.309333-44.5184-15.778133-53.6576-13.568-1.706667 0.418133-2.1504 3.003733-2.4064 3.054934-13.508267 2.5088-23.6288 2.722133-36.3008 10.999466-10.8544 7.099733-12.637867 18.0736-23.261866 24.0384z m168.174933-262.775467c2.798933 2.961067 45.149867-23.022933 52.488533-26.333867 14.8736-6.715733 35.822933-14.190933 51.5584-18.5088 6.715733-1.8432 13.9008 1.629867 18.551467-5.947733-14.114133-21.9392-34.269867-81.314133-67.8656-71.389867-23.9616 7.074133-53.154133 96.887467-54.724267 122.180267z m550.050133 157.6704c2.850133-14.114133 9.514667-27.272533 13.175467-41.1392 2.5344-9.6256 6.852267-25.028267 7.7824-34.261333 0.9984-9.890133 1.5872-51.566933-1.5872-57.813334-12.117333-23.850667-60.859733-0.238933-77.8496 9.915734-4.6336 2.7648-20.215467 10.9056-18.56 16.401066 19.140267 21.205333 36.7616 42.939733 51.976533 67.165867 7.790933 12.398933 13.346133 30.446933 25.0624 39.739733z m-446.2592-69.632c-8.3968 2.449067-18.901333 20.693333-19.754666 29.448533-3.498667 36.061867 54.843733 73.992533 84.155733 48.9728 3.601067-3.072 10.496-20.1984 10.496-24.5504 0-18.628267-26.0864-49.732267-44.381867-53.7344-6.0928-1.3312-24.977067-1.749333-30.523733-0.136533z m245.384534 70.203733c-22.775467 4.992-41.762133 33.408-28.5696 55.458134 11.861333 19.831467 38.7328 20.113067 59.477333 17.4848 17.8688-2.261333 40.644267-24.174933 36.3776-43.1616-6.519467-29.0304-42.077867-35.3024-67.285333-29.781334z m-290.7904 31.5392c-7.4496 1.621333-22.4 15.931733-26.410667 22.638934-28.151467 47.189333 30.114133 97.493333 73.028267 66.0224 21.213867-15.556267 23.8336-51.072 8.7552-71.6288-12.100267-16.494933-36.078933-21.248-55.381334-17.032534z m344.925866 125.4144c0-27.4944-22.289067-49.774933-49.774933-49.774933s-49.774933 22.289067-49.774933 49.774933 22.289067 49.774933 49.774933 49.774934 49.774933-22.289067 49.774933-49.774934z" fill="#F9C37D" p-id="2487"></path><path d="M247.790933 428.2368l14.0288 7.005867c-14.1312-3.566933-16.298667 6.519467-24.618666 12.1856-4.343467 2.952533-9.924267 4.130133-13.8496 7.176533-8.174933 6.3488-20.232533 19.6608-23.031467 29.5168-1.681067 5.9136-4.497067 20.462933-5.1456 26.581333-0.64 6.050133 2.372267 10.538667 2.210133 13.892267-0.452267 9.463467-3.976533 20.744533-2.321066 31.317333 18.901333 10.871467 21.794133 38.289067 40.311466 51.157334 4.573867 3.1744 24.8832 14.199467 29.755734 15.786666 15.624533 5.077333 55.4496 2.304 71.364266-2.551466 18.5344-5.6576 42.461867-25.856 53.102934-41.4976 14.8224-21.794133 9.378133-38.391467 12.996266-60.612267 0.8192-5.026133 2.7648-11.4944 9.856-9.378133 2.901333 0.7936 8.046933-0.5888 12.066134 0.068266 4.8384 0.7936 8.6016 3.968 14.037333 3.5584 31.061333-2.3552 62.250667-24.942933 94.8992-28.177066 12.151467-1.2032 44.680533 7.9104 56.610133 13.354666 50.346667 22.9888 47.291733 73.8816 106.171734 88.277334 5.5296 9.472-7.0912 19.712-11.195734 29.090133-3.566933 8.1408-10.555733 34.824533-9.949866 42.564267 0.2816 3.584 3.2256 7.022933 3.584 10.743466 0.554667 5.8112-0.768 11.912533 0.1024 17.408 5.384533 34.176 49.425067 76.014933 82.961066 81.706667 18.747733 3.182933 39.5776-1.826133 58.914134 4.343467 4.266667-3.003733 12.16-5.154133 15.735466-7.168-1.809067 5.973333-6.894933 8.106667-11.579733 11.195733-87.944533 57.838933-238.199467 53.495467-336.170667 26.496-120.6272-33.245867-277.128533-122.3936-300.398933-254.907733l-0.384-11.895467-3.1232-2.116267v-52.5568l3.1232-2.1248 0.384-11.895466c0.145067-1.152-0.1792-2.363733 0-3.5072 10.624-5.9648 12.407467-16.938667 23.261867-24.0384 12.663467-8.277333 22.784-8.490667 36.3008-10.999467z m272.1024 81.160533c-8.106667 1.7664-17.544533 11.229867-19.293866 19.242667-4.983467 22.843733 25.966933 52.872533 47.419733 56.576 28.194133 4.872533 77.986133-15.0784 55.278933-48.273067-16.964267-24.8064-55.1168-33.723733-83.413333-27.5456z m-3.5072 87.5776c-18.679467 4.1216-32.9984 27.537067-29.687466 46.0544 6.6304 37.0688 67.413333 48.520533 78.344533 9.6 9.480533-33.749333-13.277867-63.4624-48.648533-55.6544z" fill="#F9EFDB" p-id="2488"></path><path d="M181.2224 610.423467c-14.293333 31.803733-36.010667 54.7328-65.348267 73.0368-7.1936 4.488533-17.092267 11.383467-25.736533 11.050666-11.374933-15.479467-22.698667-30.8736-29.832533-48.9984-9.8304-24.96-18.423467-70.391467 6.912-87.790933 25.856-17.749333 56.7296 5.188267 77.294933 21.102933 10.769067 8.328533 27.272533 22.135467 36.718933 31.598934z" fill="#F6EEDD" p-id="2489"></path><path d="M717.269333 589.397333c1.152 12.612267-11.6992 20.821333-15.906133 31.394134-4.292267 10.7776-9.6 36.164267-8.5248 47.377066 3.490133 36.5056 27.963733 65.553067 61.986133 78.1312 20.5568 7.594667 61.687467 11.793067 82.7392 7.1936 20.539733-4.488533 25.454933-32.6144 31.061334-49.518933 3.370667-10.171733 8.874667-18.8672 9.9584-32.085333 2.619733-31.803733-0.853333-34.944-13.431467-60.4416-1.3568-2.747733-6.8608-14.08-0.733867-15.035734 16.512 8.5248 25.3696 12.5952 34.525867 30.2848 7.5008 14.4896 6.9888 27.972267 11.016533 43.2896-11.818667 27.426133-21.512533 47.650133-41.8816 68.369067-8.593067 8.738133-21.1456 20.2752-31.6928 26.222933-3.566933 2.013867-11.4688 4.164267-15.735466 7.168-19.336533-6.1696-40.1664-1.160533-58.914134-4.343466-33.536-5.691733-77.576533-47.530667-82.961066-81.706667-0.861867-5.495467 0.452267-11.5968-0.1024-17.408-0.349867-3.720533-3.3024-7.150933-3.584-10.743467-0.605867-7.739733 6.391467-34.423467 9.949866-42.564266 4.104533-9.378133 16.725333-19.618133 11.195734-29.090134 7.850667 1.92 12.7232 2.944 21.0176 3.5072z" fill="#F8EBD6" p-id="2490"></path><path d="M188.228267 547.362133c-0.136533-0.768-6.596267-6.792533-3.5072-14.011733l3.1232 2.116267 0.384 11.895466zM184.7296 480.7936c-3.089067-7.441067 3.4048-13.2352 3.5072-14.011733l-0.384 11.895466-3.1232 2.1248zM303.8464 438.749867c1.92 11.332267-5.742933 5.998933-12.347733 6.903466-21.666133 2.961067-22.4512 5.794133-38.894934 17.194667-8.1408 5.649067-6.306133 3.6864-12.5184 10.0608-3.165867 3.2512-9.762133 4.48-14.967466 11.485867-11.733333 15.7952-8.6272 32.213333-11.716267 50.1248 9.5744 25.053867 23.662933 52.309333 50.901333 61.149866 14.506667 4.701867 36.923733 8.3456 51.1488 3.575467 3.140267-1.0496 5.051733-4.3776 8.328534-5.674667 5.973333-2.363733 11.042133-1.015467 18.517333-6.007466 6.826667-4.5568 29.5168-28.219733 31.0528-35.515734 1.220267-5.777067-0.0768-11.332267 0.6144-16.887466 0.477867-3.797333 3.310933-7.202133 3.584-10.734934 0.6656-8.567467-7.355733-25.088-3.6352-36.616533 4.625067 3.319467 33.646933 19.6864 38.536533 21.0176-7.0912-2.116267-9.0368 4.352-9.856 9.378133-3.618133 22.2208 1.826133 38.818133-12.996266 60.612267-10.632533 15.6416-34.56 35.84-53.102934 41.4976-15.9232 4.855467-55.748267 7.6288-71.364266 2.551467-4.872533-1.5872-25.1904-12.612267-29.755734-15.786667-18.525867-12.868267-21.418667-40.285867-40.311466-51.157333-1.655467-10.5728 1.8688-21.853867 2.321066-31.317334 0.162133-3.3536-2.850133-7.842133-2.210133-13.892266 0.648533-6.1184 3.464533-20.676267 5.1456-26.581334 2.807467-9.856 14.856533-23.168 23.031467-29.5168 3.925333-3.0464 9.506133-4.215467 13.8496-7.176533 8.32-5.6576 10.487467-15.744 24.618666-12.1856l-14.0288-7.005867c0.256-0.0512 0.6912-2.6368 2.4064-3.054933 9.130667-2.210133 42.8544 9.250133 53.6576 13.568z" fill="#FAE5CB" p-id="2491"></path><path d="M373.922133 487.799467c-3.720533 11.528533 4.3008 28.0576 3.6352 36.616533-0.273067 3.5328-3.106133 6.9376-3.584 10.734933-0.699733 5.5552 0.597333 11.1104-0.6144 16.887467-1.536 7.296-24.226133 30.958933-31.0528 35.515733-7.466667 4.992-12.544 3.643733-18.517333 6.007467-3.2768 1.297067-5.188267 4.616533-8.328533 5.674667-14.225067 4.7616-36.642133 1.1264-51.1488-3.575467-27.2384-8.832-41.335467-36.096-50.901334-61.149867 3.089067-17.911467-0.017067-34.3296 11.716267-50.1248 5.205333-7.0144 11.8016-8.2432 14.967467-11.485866 6.212267-6.3744 4.3776-4.411733 12.5184-10.0608 16.443733-11.409067 17.2288-14.242133 38.894933-17.194667 6.6048-0.904533 14.267733 4.437333 12.347733-6.903467 33.450667 13.354667 44.2112 30.506667 70.0672 49.0496z m-28.680533 0.64c-7.1168-1.245867-10.197333-7.5776-15.598933-10.666667-36.7616-21.060267-48.477867-10.1632-76.535467 13.704533-2.747733 2.338133-7.04 2.7392-8.200533 3.9424-1.083733 1.1264-6.434133 16.494933-6.946134 19.328-3.0976 17.109333 1.851733 15.453867 7.099734 26.589867 1.988267 4.224 2.304 9.2672 4.514133 13.0048 3.2768 5.563733 21.717333 20.224 27.9296 21.12 6.340267 0.9216 29.1584 1.006933 34.6112-0.571733 1.1008-0.315733 17.442133-10.222933 19.677867-11.8528 21.248-15.470933 28.125867-52.5056 13.457066-74.5984z" fill="#FAD5B6" p-id="2492"></path><path d="M836.386133 585.898667l2.176 3.114666 8.337067 0.384c7.893333 2.321067 10.683733 3.4816 17.518933 7.005867-6.126933 0.955733-0.622933 12.288 0.733867 15.035733 12.578133 25.4976 16.0512 28.637867 13.431467 60.4416-1.092267 13.2096-6.587733 21.905067-9.9584 32.085334-5.6064 16.904533-10.5216 45.0304-31.061334 49.518933-21.060267 4.599467-62.1824 0.401067-82.7392-7.1936-34.0224-12.578133-58.496-41.6256-61.986133-78.1312-1.0752-11.2128 4.232533-36.599467 8.5248-47.377067 4.215467-10.5728 17.066667-18.781867 15.906133-31.394133 8.046933 0.546133 16.4352-0.059733 24.5248 0 5.1456 0.034133 13.9008-1.698133 17.5104 1.749333-10.043733 7.5264-26.197333 11.682133-33.220266 22.8352-2.807467 4.4544-2.961067 11.8528-8.311467 16.213334 0.861867 12.0064-4.957867 22.749867-4.164267 34.6624 0.8448 12.7744 11.485867 40.610133 21.162667 48.938666 2.158933 1.860267 21.1712 12.834133 24.405333 14.1312 29.7472 11.946667 71.8336 11.0592 90.743467-18.1504 2.372267-3.6608 13.371733-28.6976 13.397333-30.941866 0.034133-2.5088-2.926933-5.9392-2.5344-10.3936 0.324267-3.712 3.592533-7.099733 3.618134-10.7264 0.059733-11.127467-14.711467-45.789867-22.792534-54.263467-5.8368-6.126933-20.352-7.765333-19.2256-17.553067 4.488533 0.494933 9.745067-0.6912 14.011734 0z" fill="#FAE1C7" p-id="2493"></path><path d="M906.453333 358.1696c-11.716267-9.2928-17.271467-27.3408-25.0624-39.739733-15.214933-24.226133-32.836267-45.952-51.976533-67.165867-1.655467-5.495467 13.9264-13.636267 18.56-16.401067 16.989867-10.154667 65.732267-33.757867 77.8496-9.915733 3.1744 6.2464 2.5856 47.9232 1.5872 57.813333-0.930133 9.233067-5.239467 24.635733-7.7824 34.261334-3.6608 13.866667-10.325333 27.025067-13.175467 41.1392z" fill="#F8C9B7" p-id="2494"></path><path d="M356.4032 200.4992c1.570133-25.2928 30.7712-115.0976 54.724267-122.180267 33.604267-9.924267 53.751467 49.450667 67.8656 71.389867-4.650667 7.5776-11.835733 4.104533-18.551467 5.947733-15.735467 4.317867-36.6848 11.8016-51.5584 18.5088-7.338667 3.310933-49.6896 29.294933-52.488533 26.333867z" fill="#F8C8B6" p-id="2495"></path><path d="M709.930667 515.694933m-49.774934 0a49.774933 49.774933 0 1 0 99.549867 0 49.774933 49.774933 0 1 0-99.549867 0Z" fill="#512F26" p-id="2496"></path><path d="M414.788267 390.280533c19.3024-4.206933 43.281067 0.546133 55.381333 17.032534 15.0784 20.5568 12.450133 56.072533-8.7552 71.6288-42.914133 31.470933-101.188267-18.833067-73.028267-66.0224 4.002133-6.7072 18.952533-21.0176 26.410667-22.638934z" fill="#522E27" p-id="2497"></path><path d="M822.3744 585.898667c-1.1264 9.787733 13.3888 11.434667 19.2256 17.553066 8.081067 8.482133 22.852267 43.136 22.792533 54.263467-0.017067 3.626667-3.285333 7.0144-3.618133 10.7264-0.392533 4.4544 2.56 7.8848 2.5344 10.3936-0.0256 2.244267-11.025067 27.281067-13.397333 30.941867-18.909867 29.201067-60.996267 30.097067-90.743467 18.1504-3.234133-1.297067-22.2464-12.270933-24.405333-14.1312-9.6768-8.328533-20.309333-36.164267-21.162667-48.938667-0.7936-11.921067 5.034667-22.656 4.164267-34.6624 5.3504-4.360533 5.495467-11.758933 8.311466-16.213333 7.022933-11.144533 23.185067-15.3088 33.220267-22.8352-3.6096-3.447467-12.3648-1.706667-17.5104-1.749334l43.639467-7.159466c13.021867-2.568533 26.120533 2.466133 36.9408 3.652266z m13.2864 114.884266c8.021333-7.978667 12.910933-38.5536 11.2384-50.0736-1.220267-8.379733-12.8512-30.933333-19.1232-36.9152-22.254933-21.239467-63.214933-18.653867-82.5344 5.3248-11.400533 14.148267-15.940267 27.323733-13.866667 45.525334 2.577067 22.570667 18.7904 44.219733 40.951467 50.1248 12.552533 3.345067 36.027733 2.491733 47.658667-3.387734 1.6896-0.853333 14.916267-9.838933 15.684266-10.5984z" fill="#F9D6B8" p-id="2498"></path><path d="M460.194133 288.5376c5.546667-1.621333 24.4224-1.2032 30.523734 0.136533 18.286933 4.002133 44.373333 35.106133 44.381866 53.7344 0 4.360533-6.894933 21.4784-10.496 24.5504-29.320533 25.019733-87.662933-12.910933-84.155733-48.9728 0.853333-8.746667 11.349333-26.990933 19.754667-29.448533z" fill="#F8EEDB" p-id="2499"></path><path d="M705.578667 358.741333c25.198933-5.521067 60.757333 0.750933 67.285333 29.781334 4.266667 18.986667-18.517333 40.900267-36.3776 43.1616-20.736 2.628267-47.607467 2.346667-59.477333-17.4848-13.192533-22.050133 5.794133-50.466133 28.5696-55.458134z" fill="#F8EEDA" p-id="2500"></path><path d="M846.8992 589.397333l-8.337067-0.384-2.176-3.114666c2.3552 0.384 5.469867-0.785067 8.064 0.512 1.749333 0.426667 2.116267 2.901333 2.449067 2.9952z" fill="#F9D6B8" p-id="2501"></path><path d="M519.893333 509.397333c28.288-6.178133 66.449067 2.747733 83.413334 27.5456 22.698667 33.194667-27.093333 53.1456-55.278934 48.273067-21.4528-3.703467-52.411733-33.732267-47.419733-56.576 1.749333-8.0128 11.1872-17.467733 19.293867-19.242667z" fill="#4F2D26" p-id="2502"></path><path d="M516.386133 596.974933c35.370667-7.808 58.129067 21.905067 48.648534 55.6544-10.9312 38.920533-71.714133 27.4688-78.344534-9.6-3.310933-18.525867 11.008-41.9328 29.687467-46.0544z m32.887467 38.229334c0-11.758933-9.531733-21.290667-21.290667-21.290667s-21.290667 9.531733-21.290666 21.290667 9.531733 21.290667 21.290666 21.290666 21.290667-9.531733 21.290667-21.290666z" fill="#4E2B22" p-id="2503"></path><path d="M345.2416 488.439467c14.6688 22.0928 7.790933 59.127467-13.457067 74.5984-2.235733 1.629867-18.577067 11.537067-19.677866 11.8528-5.461333 1.578667-28.270933 1.493333-34.6112 0.571733-6.203733-0.904533-24.6528-15.5648-27.9296-21.12-2.2016-3.7376-2.517333-8.7808-4.514134-13.0048-5.248-11.136-10.197333-9.489067-7.099733-26.589867 0.512-2.833067 5.8624-18.2016 6.946133-19.328 1.160533-1.2032 5.4528-1.604267 8.200534-3.9424 28.0576-23.867733 39.773867-34.7648 76.535466-13.704533 5.4016 3.089067 8.482133 9.429333 15.598934 10.666667z m-56.6272 3.447466c-2.7392 0.341333-16.017067 7.517867-18.065067 9.915734-12.672 14.8224-11.630933 44.433067 8.6016 50.986666 20.3264 6.587733 35.106133-0.085333 48.878934-14.532266 2.397867-20.667733 1.774933-38.690133-20.642134-45.5168-4.957867-1.5104-7.253333 0.964267-11.6992 1.117866-1.792 0.059733-4.283733-2.321067-7.0656-1.9712z" fill="#FAC4A2" p-id="2504"></path><path d="M835.6608 700.782933c-0.759467 0.759467-13.994667 9.745067-15.684267 10.5984-11.630933 5.879467-35.106133 6.7328-47.658666 3.387734-22.152533-5.905067-38.3744-27.554133-40.951467-50.1248-2.0736-18.2016 2.466133-31.377067 13.866667-45.525334 19.319467-23.9872 60.279467-26.564267 82.5344-5.3248 6.272 5.9904 17.911467 28.535467 19.1232 36.9152 1.672533 11.52-3.217067 42.094933-11.2384 50.0736z m-60.0064-79.274666c-18.7392 4.087467-26.581333 29.192533-22.775467 46.1568 3.822933 17.058133 25.198933 32.913067 42.564267 29.696 16.162133-2.9952 25.309867-11.554133 32.955733-25.4976-4.437333-14.0288 0.119467-22.4-9.463466-35.242667-11.579733-15.5136-23.8848-19.345067-43.2896-15.112533z" fill="#FACBA9" p-id="2505"></path><path d="M527.982933 635.204267m-21.290666 0a21.290667 21.290667 0 1 0 42.581333 0 21.290667 21.290667 0 1 0-42.581333 0Z" fill="#F18B6F" p-id="2506"></path><path d="M288.6144 491.886933c2.781867-0.341333 5.2736 2.039467 7.0656 1.9712 4.445867-0.1536 6.741333-2.628267 11.6992-1.117866 22.417067 6.818133 23.048533 24.849067 20.642133 45.5168-13.764267 14.446933-28.552533 21.12-48.878933 14.532266-20.232533-6.5536-21.2736-36.1728-8.6016-50.986666 2.048-2.397867 15.3344-9.5744 18.065067-9.915734z" fill="#FBB995" p-id="2507"></path><path d="M775.6544 621.508267c19.4048-4.232533 31.709867-0.401067 43.2896 15.112533 9.582933 12.834133 5.026133 21.205333 9.463467 35.242667-7.645867 13.943467-16.7936 22.5024-32.955734 25.4976-17.365333 3.217067-38.741333-12.629333-42.564266-29.696-3.805867-16.955733 4.036267-42.069333 22.775466-46.1568z" fill="#FBBC97" p-id="2508"></path></svg>