<?xml version="1.0" standalone="no"?><!DOCTYPE svg PUBLIC "-//W3C//DTD SVG 1.1//EN" "http://www.w3.org/Graphics/SVG/1.1/DTD/svg11.dtd"><svg t="1782648459421" class="icon" viewBox="0 0 1024 1024" version="1.1" xmlns="http://www.w3.org/2000/svg" p-id="2446" xmlns:xlink="http://www.w3.org/1999/xlink" width="200" height="200"><path d="M853.21152 762.545103c2.534393 2.389327 13.124231 24.430866 2.60266 27.562591-1.587196-0.136533-16.793554-22.749804-18.090617-26.171661-3.976522-10.495971 12.706098-4.019189 15.487957-1.39093z" fill="#4F90A5" p-id="2447"></path><path d="M805.493252 753.892327l-32.179112-10.060773c6.519449-8.900242 19.276747-8.371177 26.265528-2.133327l5.913584 12.185566z" fill="#67A9C6" p-id="2448"></path><path d="M805.493252 826.348661c-10.666637-6.178116-24.046867-17.638351-10.052239-28.159923l12.287966 12.023434-2.227194 16.136489z" fill="#77B2C2" p-id="2449"></path><path d="M793.418618 782.069316c-1.868795 1.843195-17.365286-6.152516-21.75994-7.953045-4.881053-2.005328-1.740795-7.594646-2.389327-12.159966 12.074633-0.554665 27.161525 5.085853 24.140734 20.113011z" fill="#6DB4C3" p-id="2450"></path><path d="M829.173186 782.572781c0.921597 0.853331 9.66824 22.357272 8.524777 23.645802-12.765832 0.503465-14.259161-16.657021-24.1322-22.135406 3.012258-6.963181 12.305033-4.548254 15.59889-1.510396z" fill="#76AFC3" p-id="2451"></path><path d="M921.913198 645.553425c6.724248 27.989256 10.222905 59.852635-13.994628 80.153379-1.860262 2.943992 2.303994 9.292774 4.206922 12.134367 4.906653 7.330113 5.98185 1.075197 10.026639-2.141861 4.838387-3.848523 8.567443-7.458113 14.899159-9.250108 10.98237-3.106125 53.836652-10.555704 57.284109 1.629862 7.338646 25.890062-18.517282 70.485139-45.94334 74.137397-11.733301 1.561596-19.268214-4.044789-30.131118-3.993589l-8.098111 24.1066c23.697001-14.139694 34.960971 3.362124 52.15559 10.222905 11.417569 4.556787 38.468161 4.74452 40.524689 19.857012 1.279996 9.412241 0.853331 30.21645-0.853331 39.654291-2.756259 15.223425-8.61011 8.371177-15.479424 12.595166l-3.55839 4.556787c-2.55146 20.556743-4.386121 43.844146-8.53331 63.923024-5.384519 26.103395-7.24478 35.03777-34.841505 41.642552-28.125789 6.732781-71.039805 6.988781-99.097327 0-8.098111-2.013861-22.673004-6.545049-26.291128-13.960495-5.358919-11.00797-10.009572-38.416961-12.578098-51.82279-2.116261-11.050636-1.860262-30.233517-4.548255-39.731091-1.629862-5.768517-16.008489-7.022914-19.063414-21.188209-1.544529-7.176514-2.124794-32.827643-0.264532-39.159359 3.822923-13.013298 35.839901-12.424499 45.311875-15.061291 5.529585-1.535996 16.119422-12.808498 25.352464-14.87356 7.978645-1.783462 16.605821-1.689595 23.628735 2.662393 15.078359-13.25223 12.731698-28.313522 14.037294-45.499608 0.315732-4.130122 3.916789-8.072511 3.91679-12.1685 0-5.887984-6.476782-15.530624-4.403188-23.739668l-5.964784-6.118383c-6.365849-0.904531-12.791431 0.401066-19.140214-0.989864-2.286927-0.494932-20.488477-10.837304-21.93914-12.279433-10.009572-9.924239-22.92047-59.980635-15.103958-71.773669 20.334877-12.313566 38.72416 2.730659 56.217445 12.134366 11.016503-11.741834 26.666593-22.417005 42.248417-15.658623z m-52.00199 51.993457c15.709823-2.969592 17.638351 11.323702 26.163128 20.104478 15.948756-8.686909 25.104998-42.069218 16.170622-56.405178-7.842112-12.586632-25.241531 15.82929-32.272978 20.181277-11.716234-14.404227-27.280992-23.492202-46.284673-24.1322 0.290133 29.934851 7.29598 66.363551 44.270812 64.392356l-8.038378-24.140733z m16.093822 132.829501c-0.776531 1.544529-9.326908 11.869834-10.154639 12.074634l-3.677856-0.162133c-6.536515-8.029845-14.267694-9.54024-24.499133-7.978645-7.253313 1.10933-11.204236 8.063978-17.817551 10.350905-6.399982 2.218661-16.878887-0.887464-16.298622 5.82825 6.741315-1.356796 12.373299 3.268258 18.184484 3.959456 41.37802 4.915186 79.325649 4.829853 120.661001 0.059733 3.225591-0.375466 15.052759-2.773326 14.097028-8.021311-18.798882-5.845317-28.919387-15.368491-50.406261-12.177033-7.935978 1.177597-10.95677 10.478905-20.019145 8.166378l-2.013861-8.081045c2.611193-12.322099 11.118903-26.239928 12.236766-38.084162 2.193061-23.20207-4.82132-44.074545-8.217577-66.56835-6.783981-1.100797-4.497054 9.898639-3.94239 14.003161 0.887464 6.570649 3.541324 11.460235 4.070389 20.078878 1.100797 17.834618-4.198388 50.576928-12.202633 66.542751z m96.614134-96.605601c-25.087931-1.006931-67.293682 3.370657-64.400889 36.215367l20.113011-8.046911-8.012778 22.152472c3.285324 3.438924 4.625054 6.263449 10.069306 6.126917 24.354066-0.639998 44.373211-33.356708 42.23135-56.447845z m8.038378 128.801779c-43.229748 5.503985-86.860561 10.87997-130.994839 8.226111-6.451182-0.383999-11.153036-3.71199-16.00849-4.121589-18.056484-1.510396-36.240967-2.687993-54.263317-4.113055l1.783462 24.3882c2.047994 2.918392 15.820756 7.039981 20.411677 7.765312 44.526811 7.039981 96.341068 5.649051 140.902012 0.127999 13.422896-1.663995 28.740188 3.447457 37.751363-10.547171l0.409599-21.73434z m-20.130078 44.287878c-6.946114-1.911461-12.492766 3.473057-18.167416 3.959456-24.592999 2.116261-49.066532 1.535996-72.473401 0.136533-23.560469-1.407996-47.743869 3.259724-70.35714-4.095989l17.988217 88.669623c2.756259 3.276791 18.841548 6.877848 24.354067 7.850645 26.76046 4.710387 53.205187 3.746123 80.366712 0.0256 12.782898-1.749329 21.879406-5.973317 25.463397-18.815948 4.411721-15.769557 10.77757-47.539069 12.740231-63.743825 0.563198-4.642121-0.034133-9.378108 0.085333-13.994628z" fill="#4A2623" p-id="2452"></path><path d="M970.527464 906.860439c-0.119466 4.616521 0.477865 9.352508-0.085333 13.994629-1.962661 16.204755-8.32851 47.974268-12.740231 63.743824-3.592523 12.842631-12.680498 17.058086-25.463397 18.815949-27.161525 3.720523-53.606253 4.676254-80.366712-0.0256-5.512518-0.972797-21.597807-4.565321-24.354067-7.850645l-17.988217-88.669623c22.621804 7.364246 46.796671 2.687993 70.35714 4.095989 23.406869 1.399463 47.880402 1.979728 72.473401-0.136533 5.674651-0.486399 11.221302-5.870917 18.167416-3.959456z" fill="#C18E64" p-id="2453"></path><path d="M990.657542 862.572561l-0.409599 21.73434c-9.019709 13.994628-24.328466 8.883176-37.751362 10.547171-44.560944 5.521051-96.375202 6.911981-140.902013-0.127999-4.599454-0.725331-18.363683-4.84692-20.411677-7.765312l-1.783462-24.3882c18.02235 1.425063 36.206834 2.60266 54.263318 4.113056 4.855453 0.401066 9.557307 3.729056 16.008489 4.121588 44.134279 2.645326 87.756559-2.722126 130.99484-8.22611z" fill="#C3966D" p-id="2454"></path><path d="M869.911208 697.546882l8.038378 24.140733c-36.966298 1.971195-43.980679-34.457505-44.270812-64.392356 19.003681 0.639998 34.568438 9.727973 46.284673 24.1322 7.031447-4.351988 24.430866-32.759377 32.272978-20.181277 8.934375 14.335961-0.221866 47.718269-16.170623 56.405178-8.516243-8.772243-10.453305-23.07407-26.163128-20.104478z" fill="#85AF5C" p-id="2455"></path><path d="M894.051941 834.395572l2.013861 8.081045c9.062375 2.303994 12.083167-6.988781 20.019145-8.166378 21.495408-3.191458 31.60738 6.331716 50.406262 12.177033 0.955731 5.247986-10.871437 7.654379-14.097028 8.021311-41.335353 4.77012-79.282982 4.855453-120.661002-0.059733-5.811184-0.691198-11.451702-5.307719-18.184483-3.959456-0.571732-6.715715 9.898639-3.60959 16.298622-5.82825 6.604782-2.286927 10.564238-9.241575 17.817551-10.350905 10.239972-1.561596 17.962617-0.0512 24.499133 7.978645l3.677856 0.162133c0.836264-0.213333 9.386641-10.538638 10.154639-12.074634l8.046911 4.027722z" fill="#A47550" p-id="2456"></path><path d="M982.619164 733.770782c2.141861 23.082603-17.877284 55.807847-42.23135 56.447845-5.444252 0.145066-6.792515-2.679459-10.069306-6.126917l8.012778-22.152472-20.113011 8.046911c-2.884259-32.84471 39.312959-37.222298 64.400889-36.215367z" fill="#82B153" p-id="2457"></path><path d="M894.051941 834.395572l-8.046911-4.027722c8.004245-15.965823 13.30343-48.708133 12.202633-66.542751-0.529065-8.618643-3.191458-13.499696-4.070389-20.078878-0.554665-4.104522-2.841592-15.112492 3.94239-14.003161 3.404791 22.502338 10.410638 43.374814 8.217577 66.56835-1.117864 11.835701-9.625574 25.762062-12.236766 38.084162z" fill="#768939" p-id="2458"></path><path d="M366.744591 621.062825c1.450663 2.082128 2.611193 6.826648 4.027723 8.046912-7.27038 2.42346-12.006367 8.439443-4.027723 14.088494 13.644762 9.676773 33.015376 15.138092 48.307068 22.135406-27.229792 19.199947-30.771115 56.328378-16.102356 84.530968-34.201506-0.0512-67.003549-6.971714-94.600273-28.15139-17.851684 15.035692 8.849042 24.755132 22.084206 30.224984 9.54024 3.942389 21.171142 4.189855 28.236722 10.001039-12.2453-2.184527-7.765312 6.169583-8.046911 14.071428-1.08373 29.610585 2.329594 66.030752 28.279389 84.445634 21.478341 15.231958 68.360345 19.839945 94.404007 18.133284l38.323094-7.970112c32.170578 11.588235 66.320884 18.619682 100.62479 16.102356 1.03253 0.998397-2.995192 12.799965-4.019189 16.093823-5.461318 17.595685-12.279433 35.618035-20.130078 52.326256-23.611668-11.08477-49.467597 0.315732-72.456334 8.046911-2.534393-6.527982-18.867148-41.890018-16.110889-44.270812 13.619163-2.261327 35.626569-2.286927 36.232434-20.121544-17.945551-1.800528-34.00524 7.705579-51.157193 11.221302-35.498569 7.278913-71.014205 7.202114-105.787442-3.182924-6.254916 20.923676-17.169019 40.746555-32.230311 56.353978-29.380186-0.588798-56.413712-3.396257-80.503246 16.102356-39.167892-110.540496-31.991379-203.143975 0.972798-315.007134 2.909859-9.881573 22.963137-71.236071 29.141253-71.005672 22.89487 10.990903 46.984404 18.133283 71.51767 24.618599 2.116261 0.554665 2.687993 3.063458 3.020791 3.148792z" fill="#F7C17B" p-id="2459"></path><path d="M225.859646 761.947771c-27.852723-12.450099-43.161481-6.331716-50.133196 24.337-4.292255 6.169583-25.011131-0.341332-26.547127 22.075673-0.290133 4.155722 4.241055 21.70874 6.075717 26.214328 10.291172 25.215931 39.116692 41.830285 66.585417 40.089489 1.254397 10.385038 6.690115 20.351944 4.036255 32.204712-70.220607 8.857576-124.91059-63.675558-98.679195-128.870046 17.126353-42.555616 61.431298-53.299053 96.870133-24.1834 2.261327 2.39786 1.518929 5.307719 1.800529 8.140778z" fill="#F5EFDD" p-id="2460"></path><path d="M225.859646 761.947771c0.989864 10.001039-3.046392 14.728493-3.950923 22.220739-3.933856 32.375378-4.027722 57.813174-0.068266 90.487218-27.468724 1.749329-56.294245-14.873559-66.585417-40.08949-1.834662-4.497054-6.365849-22.058606-6.075717-26.214328 1.544529-22.417005 22.254872-15.90609 26.547127-22.075672 6.971714-30.668716 22.280472-36.787099 50.133196-24.337z" fill="#F6C07C" p-id="2461"></path><path d="M543.853438 625.082014l11.972233 0.093867c-0.085333 12.083167 7.185047 24.618599 8.157845 36.130034 0.110933 1.331196-0.085333 2.687993 0 4.027722-15.445291-1.604262-34.935371 2.57706-49.65533-0.657065-7.816512-1.715195-18.321016-10.598371-26.675127-13.585029-21.196742-7.569046-33.834574-3.029325-53.896385 5.751451-16.230355-11.323702-48.998265-15.62449-62.98436-27.741791-1.416529-1.228797-2.57706-5.973317-4.027723-8.046911 54.160918 13.465563 123.007662 14.771159 177.108847 4.027722z" fill="#F8F0DF" p-id="2462"></path><path d="M648.514483 685.463715c0.785065 13.48263 1.03253 26.896993-10.043705 36.095901l-10.086373-3.89119c-1.18613-1.809062-1.151997-4.317855-3.899722-5.990383-8.721043-5.307719-35.916701-16.358355-44.398812-10.111972-3.899723-5.777051-8.58451-14.59196-7.500779-21.307675 8.029845-49.493197 65.271287-36.4799 75.929391 5.205319z" fill="#F9F3DF" p-id="2463"></path><path d="M342.595325 963.205885c1.766395 12.236766 11.707701 20.266611 7.671445 33.85164-5.205319 17.553018-75.511259 13.397296-86.246163-5.700251-3.251191-3.421857-1.023997-9.480507-1.937061-12.049034 24.098067-19.498613 51.131593-16.691154 80.503245-16.102355z" fill="#F5EFDD" p-id="2464"></path><path d="M584.113594 955.158973l11.793034 29.678852c-14.967426 24.695399-69.640342 17.271419-81.08351-6.698648-3.046392-6.374382-1.996795-11.921034-3.165858-14.924759 22.988737-7.731179 48.836132-19.140214 72.456334-8.046911z" fill="#F6EFDE" p-id="2465"></path><path d="M543.853438 625.082014c0.298666-0.059733 0.861864-2.833059 2.884258-3.285324 15.923156-3.566924 31.60738-5.887984 46.975871-12.543965 12.689032 11.460235 33.382308 38.024429 0.383999 23.714068l-30.11405 28.347655c-0.972797-11.511435-8.243177-24.055401-8.157845-36.130034l-11.972233-0.093866z" fill="#F0BE7D" p-id="2466"></path><path d="M628.384405 717.668426c0.580265 0.878931-0.511999 2.815992 0 4.027723-16.844754-7.21918-37.136965-3.58399-48.307067-20.130078 8.48211-6.254916 35.677769 4.79572 44.398811 10.111972 2.747726 1.672529 2.713593 4.189855 3.899723 5.990383z" fill="#EDDBBD" p-id="2467"></path><path d="M354.669958 761.947771l52.539589 5.828251c3.259724 13.960495 25.872996 29.858051 30.079917 38.348694 2.995192 6.050117 1.066664 11.844234 2.611193 17.518886 5.870917 21.521007 47.795069 39.816424 67.72888 46.992937l-38.323094 7.970111c-26.052195 1.706662-72.925666-2.901325-94.404007-18.133283-25.958329-18.414883-29.363119-54.835049-28.279389-84.445634 0.290133-7.901845-4.189855-16.255955 8.046911-14.071428z" fill="#F8F0DC" p-id="2468"></path><path d="M415.051659 665.333637c26.948193 12.339166 49.928396 16.691154 44.270811 54.340117-4.386121 29.200986-37.606297 30.224984-60.364634 30.190851-14.677293-28.202589-11.127436-65.33102 16.102356-84.530968z" fill="#F7EDD8" p-id="2469"></path><path d="M563.983516 665.333637l-2.141861 3.857056-46.165206 0.1792c-0.298666 4.983453 5.836784 6.041583 8.046911 8.038377 7.09118 6.391449 18.875681 13.559429 28.176989 16.102356l-4.019189 2.141861 4.019189 9.932773c-11.443169-5.836784-25.719396-6.869314-34.448972-20.019145l-3.601057-0.0512c-7.14238 1.988261-20.454344 31.692713-24.413799 40.132156-13.823962 29.499652-25.34393 60.782766-38.348695 90.709084l2.047995 6.05865c9.403707 15.027159 48.964132 32.179112 66.397684 38.306028 27.144459 9.531707 57.557175 16.486355 86.348562 13.576496l12.236767-32.034045 89.002421-60.048902-8.294377-24.2602c-18.952481 9.130642-40.379622 21.247942-59.605169 28.936454-5.068786 2.022394-8.789309 4.479988-14.873559 3.234124 6.621848-17.988217 9.198908-37.222298 8.038378-56.311311-7.833578 3.362124-14.455427-3.68639-16.093823-4.061856h16.093823c2.227194-7.577579-3.797323-7.526379-4.019189-8.046911-0.511999-1.203197 0.580265-3.148791 0-4.027722l10.086372 3.891189c11.067703-9.198908 10.820237-22.613271 10.043706-36.095901l7.756778 0.187733c0.742398 7.185047-0.170666 14.344494 0.725332 21.597807 0.409599 3.327991 3.53279 2.158927 3.592523 2.363727 3.404791 11.810101-9.361041 19.788746-11.443168 26.794593-2.312527 7.773845-2.687993 20.872476-4.650654 29.550852 2.44906 2.47466 54.015851-18.25275 55.876113-20.590876 1.826128-2.29546 2.713593-17.800484 8.362643-25.847396 25.557263-36.394567 61.491031 26.308194 55.705447 59.741702-5.666118 32.708177-27.938057 15.564757-48.929999 11.221303l-85.324565 59.792902c-3.046392 16.588754-6.323183 33.296975-10.837303 49.527331-1.740795 6.263449-6.297583 12.501299-7.057048 15.095425v-12.0917l-8.046911 0.017066c1.023997-3.293858 5.051719-15.095425 4.019189-16.093822-34.303906 2.508793-68.454212-4.522654-100.62479-16.102356-19.933812-7.176514-61.857963-25.47193-67.72888-46.992937-1.544529-5.666118 0.383999-11.468768-2.611193-17.518886-4.206922-8.490643-26.820193-24.3882-30.079917-38.348694l-52.539589-5.828251c-7.065581-5.811184-18.696482-6.067183-28.236723-10.001039-13.243697-5.469852-39.944423-15.189292-22.084206-30.224983 27.596724 21.179675 60.398767 28.100189 94.600274 28.151389 22.758337 0.034133 55.978513-0.998397 60.364634-30.19085 5.657584-37.648963-17.322619-42.000951-44.270812-54.340118-15.291691-6.997314-34.662305-12.467166-48.307067-22.135405-7.978645-5.657584-3.242658-11.673568 4.027722-14.088495 13.986095 12.1173 46.754005 16.426621 62.98436 27.74179 20.061811-8.780776 32.699643-13.32903 53.896385-5.751451 8.345577 2.978125 18.858615 11.861301 26.675127 13.58503 14.728493 3.234124 34.210039-0.947197 49.65533 0.657065z m-112.707957 4.019189c12.518366 2.875725 24.942865 5.239452 37.307631 8.994109 7.586112 2.303994 8.575976 5.802651 15.001558-2.943992-0.503465-7.44958-47.274537-25.087931-52.309189-6.050117z m24.149267 48.3156c-1.10933 6.16105-9.045308 18.380749-12.074634 28.17699l-16.093822 10.077839v3.993589l12.0661 6.050116 4.036256-16.102355 3.524257-2.406394c5.631985-9.429307 8.695443-19.669279 12.578098-29.798318 3.63519-9.480507 10.85437-16.307155 8.004245-28.091656l-16.042622-4.113055c0.1792 11.135969 6.143983 20.428744 4.019189 32.204711z m269.695258 68.420079c-8.874642-12.0405-16.034089-28.356189-19.36208-43.016415-1.31413-5.785584 1.18613-14.139694-2.773326-17.348219-7.748245 8.251711-11.869834 22.741271-9.454907 33.587108 3.626657 16.315688 15.300225 24.328466 31.590313 26.777526z m8.038378-12.074634l-4.89812-25.275663-11.187169-18.986615 4.89812 25.275664 11.187169 18.986614z m-305.919159 20.130078c2.892792-14.609026-8.294377-29.559385-24.140733-28.168455-2.175994 1.988261 17.655418 27.315125 24.140733 28.168455z" fill="#542F27" p-id="2470"></path><path d="M551.908882 705.593793c27.101792 13.832495 34.619638 17.262886 64.40089 24.149267 1.629862 0.375466 8.260244 7.42398 16.093822 4.061855 1.16053 19.089014-1.416529 38.314561-8.038378 56.311312 6.08425 1.245863 9.804773-1.203197 14.873559-3.234124 19.217014-7.688512 40.652688-19.805812 59.60517-28.936454l8.294377 24.2602-89.002422 60.048901-12.236766 32.034046c-28.791387 2.909859-59.204104-4.036256-86.348563-13.576496-17.433552-6.126916-56.993977-23.270336-66.397684-38.306028l-2.047994-6.05865c13.004764-29.926318 24.524733-61.209432 38.348694-90.709084 3.950922-8.439443 17.271419-38.143895 24.4138-40.132156l3.601057 0.051199c8.729576 13.158364 23.005803 14.182361 34.448972 20.019145z m-56.353978 52.317723c7.074114 1.373863 9.992506-3.566924 13.926362-8.200511 3.48159-4.095989 17.407952-23.09967 17.97115-26.538594l-9.77064-13.542362c-5.290652 0-25.454863 44.697477-22.135405 48.281467z" fill="#84BAC6" p-id="2471"></path><path d="M523.731893 677.416804l36.044701 0.179199 4.198388 15.914623c-3.780256-0.554665-8.900242 0.870398-12.074633 0-9.301308-2.542926-21.085809-9.710907-28.176989-16.102356z" fill="#6C7C88" p-id="2472"></path><path d="M745.120084 786.088505c-16.290089-2.44906-27.963656-10.453305-31.590313-26.777526-2.414927-10.85437 1.706662-25.335397 9.454907-33.587108 3.967989 3.208525 1.459196 11.562635 2.773326 17.348219 3.327991 14.66876 10.487438 30.984448 19.36208 43.016415z" fill="#7FA6B1" p-id="2473"></path><path d="M451.275559 669.352826c5.034653-19.037814 51.805724-1.407996 52.309189 6.050117-6.425582 8.746643-7.415446 5.247986-15.001558 2.943992-12.364766-3.754656-24.789265-6.118383-37.307631-8.994109z" fill="#79ADBB" p-id="2474"></path><path d="M447.239303 794.143949c-6.493849-0.844798-26.316728-26.180195-24.140733-28.168455 15.846356-1.39093 27.033526 13.559429 24.140733 28.168455z" fill="#74ABBB" p-id="2475"></path><path d="M475.424826 717.668426c2.124794-11.767434-3.831456-21.060209-4.019189-32.204711l16.042623 4.113055c2.858659 11.784501-4.360521 18.611149-8.004245 28.091656h-4.027722z" fill="#E5DBCF" p-id="2476"></path><path d="M753.158462 774.013871L741.971293 755.027257l-4.889587-25.284197 11.18717 18.995148 4.889586 25.275663z" fill="#8E9EA5" p-id="2477"></path><path d="M463.350192 749.864605l-4.036255 16.102355-12.0661-6.050116v-3.993589l16.093822-10.077839c-0.366932 1.18613 0.324266 2.730659 0 4.027722z" fill="#E7E0D5" p-id="2478"></path><path d="M463.350192 749.864605c0.324266-1.297063-0.366932-2.841592 0-4.027723 3.029325-9.79624 10.965303-22.015939 12.074634-28.176989h4.027722c-3.882656 10.120506-6.946114 20.369011-12.578099 29.798318l-3.524257 2.406394z" fill="#AE9F97" p-id="2479"></path><path d="M495.554904 757.911516c-3.319458-3.58399 16.844754-48.281467 22.135406-48.281467l9.770639 13.542362c-0.571732 3.438924-14.498093 22.442605-17.97115 26.538594-3.933856 4.633587-6.852248 9.582907-13.926362 8.200511z" fill="#E1ECED" p-id="2480"></path><path d="M612.290583 914.907351c-0.870398 2.986658 0.767998 8.550376-0.674132 13.27783-2.252794 7.37278-10.146105 18.321016-10.811703 25.668196-0.537599 5.922117 6.357316 11.878367 7.449579 19.41328 2.082128 14.318894 0.085333 23.978601-12.1685 32.102312-25.941262 17.194619-78.327251 9.710907-93.345876-19.148748-5.282119-10.163172-17.075153-62.122496-25.173264-62.549161l-94.916006 5.119986-22.852204 40.413755c29.986051 61.687297-65.313954 66.372084-99.788525 38.348695-18.082084-14.69436-21.512474-62.131029-28.02339-84.693101l-4.044789-3.60959c-4.684787 4.027722-10.427705 4.275188-16.238889 3.985056-40.06389-1.971195-80.349646-28.509788-95.325604-65.894219-10.077839-25.156197-13.388763-45.99454-6.399982-72.405134 6.638915-25.087931 22.434072-47.991335 47.317203-57.343842 21.068742-7.910378 37.043098-5.145586 57.693708 2.961058 6.493849 2.55146 9.548774 12.637832 17.006886 3.302391 10.188772-50.397728 22.92047-101.017322 46.07134-147.037462-50.133195-31.027115-86.766695-77.900586-88.422157-138.854018-22.451138-0.196266-47.43667-3.882656-69.512342-8.968509-23.07407-5.316252-74.350729-21.998873-89.497354-39.304425-3.942389-4.505588-10.649571-20.130078-10.188772-26.035129 7.577579-27.195659 28.774321-49.092132 48.426534-68.573678-2.141861-5.572251-15.462357-4.309321-12.049034-12.057566 6.434116-14.626093 16.238889 3.114658 21.717274 1.834661l22.545005-17.962617-12.057567-18.090617 25.753529 7.842112c35.643635-31.240447 80.033913-49.569997 121.3522-72.063802 9.105042-42.53855 23.321536-84.761367 48.298533-120.763401 42.948149-61.97743 129.288178-78.933116 200.976514-72.567267C553.214479 7.27038 592.749303 51.908124 623.742285 108.458368c6.954648 12.697565 15.052759 27.084726 17.143419 41.215887 61.593431 13.294897 120.422069 33.314042 175.248585 64.503289l19.558346-11.716234c14.028761 10.197305-2.713593 12.859698-2.013861 24.123667l26.137528-4.027722c11.417569 8.183444 0.682665 7.978645-1.774928 14.33596l-0.221866 5.777051c1.766395-0.1536 3.68639-0.213333 5.282118 0.657065 115.097283 62.489428-79.530448 143.436406-134.100964 152.319581 20.292211 87.099494-20.616477 158.83903-97.825864 198.023989-7.21918 3.66079-14.378627 8.277311-22.920471 7.27038-1.646929 6.331716 1.612796 6.630382 4.053322 10.035172 18.235683 25.403663 45.004676 47.931602 50.372129 78.446718 1.399463 7.953045 3.933856 12.543966-2.090661 20.198344-0.059733-0.204799-3.182925 0.964264-3.592524-2.363727-0.895998-7.253313 0.008533-14.41276-0.725331-21.597807l-7.756779-0.187733c-10.649571-41.676685-67.899547-54.689983-75.929391-5.205319-1.092264 6.715715 3.592523 15.522091 7.500779 21.307675 11.161569 16.546088 31.45378 12.902365 48.307068 20.130078 0.221866 0.529065 6.246383 0.469332 4.019189 8.046911h-16.093823c-29.781251-6.877848-37.307631-10.316772-64.400889-24.149267l-4.019189-9.932772 4.019189-2.141861c3.174391 0.861864 8.294377-0.563198 12.074633 0l-4.198388-15.914623-36.044701-0.1792c-2.210127-1.996795-8.345577-3.054925-8.046912-8.038378l46.165207-0.179199 2.141861-3.857056c-0.085333-1.33973 0.110933-2.696526 0-4.027722l30.11405-28.347656c32.998309 14.310361 12.305033-12.253833-0.383999-23.714068-15.368491 6.664515-31.052715 8.985575-46.975871 12.543966-2.022394 0.452265-2.585593 3.225591-2.884258 3.285324-54.109718 10.743437-122.956462 9.437841-177.108847-4.027722-0.332799-0.085333-0.904531-2.594126-3.020791-3.148792-24.533266-6.485315-48.6228-13.627696-71.51767-24.618599-6.178116-0.230399-26.231395 61.124099-29.141253 71.005672-32.964176 111.863159-40.149223 204.466638-0.972798 315.007134 0.913064 2.568526-1.31413 8.627176 1.937062 12.049033 10.734904 19.097547 81.03231 23.253269 86.246162 5.700251 4.036256-13.585029-5.90505-21.614874-7.671445-33.85164 15.069825-15.607424 25.983929-35.430303 32.230311-56.353979 34.773238 10.385038 70.288873 10.461838 105.787443 3.182925 17.151953-3.515724 33.211642-13.021831 51.157192-11.221302-0.597332 17.843151-22.604738 17.860218-36.232433 20.121544-2.756259 2.380793 13.576496 37.751363 16.110889 44.270812 1.169063 3.003725 0.128 8.550376 3.165857 14.924759 11.443169 23.970067 66.116085 31.394047 81.083511 6.698648l-11.793034-29.678852c7.850645-16.708221 14.66876-34.730571 20.130078-52.326256l8.055444-0.017066v12.0917z m-8.063978-805.058053c1.100797-5.683184-2.184527-8.857576-4.727454-13.371697C557.967532 22.792471 493.114377 5.068786 413.114597 17.348219c-49.134798 7.543446-95.223205 27.502858-122.299397 70.911805-4.360521 6.988781-27.554058 54.57905-24.686865 57.821708 26.274061-12.569565 55.099582-20.642077 83.438704-27.246859 67.609414-15.769557 146.917996-22.391405 216.609537-17.203152 11.00797 0.819198 27.161525 5.02612 38.058562 8.22611z m11.818634 12.339166c-9.82184 1.979728-17.885817-3.106125-25.966862-4.215455-82.124574-11.238369-184.481626-0.921597-264.617939 21.034609-21.427141 5.870917-42.060684 15.180758-63.547558 20.974875l-11.895434 30.361517c25.335397-6.451182 49.928396-16.947153 75.306459-23.304469 79.086716-19.797279 171.510995-29.166853 252.927305-25.164731 13.832495 0.682665 30.224984 7.782379 46.114006 4.198388l-8.311443-23.884734z m-301.626904 64.14489C217.10447 212.112483 132.539369 255.248365 64.853155 331.246022c-1.254397 1.407996-5.452785 2.619726-8.132244 5.819718-12.202633 14.56636-26.982326 31.50498-16.017023 50.534261 6.169583 10.700771 15.351424 11.468768 24.149267 16.102355 6.21225 3.268258 7.44958 4.906653 16.102356 8.046912 34.824438 12.671965 71.867536 19.857012 108.680234 24.1578-5.171186-48.921465 26.342328-92.893611 24.149267-140.884946-54.357184 20.411677-113.655154 38.254828-156.953168 78.514984l-8.072511-10.086372c3.302391-5.666118 15.010092-16.563154 20.130078-20.130078 22.161006-15.402624 74.077663-37.811096 100.633323-48.307067 6.425582-2.534393 14.293294-5.939184 20.130078-8.046911 11.042103-4.002122 27.852723-8.234644 40.251622-12.074634 7.415446-2.29546 15.940223-6.852248 20.130078-8.046911 5.674651-1.621329 16.247422-1.988261 24.149267-4.027722 8.183444-2.107728 18.790348-6.835181 24.149267-8.046912 38.980159-8.849042 81.03231-15.138092 120.754868-20.130078 7.34718-0.921597 15.223425-3.942389 16.102356-4.027722 6.502382-0.639998 13.516763 0.375466 20.130078 0 9.762106-0.554665 20.206878-3.729056 24.149267-4.027722 40.456422-3.012258 84.018969-3.899723 124.78259-4.027722v2.099194c19.327947 4.249588 40.405222 0.964264 60.381701 1.928528 3.993589 0.196266 8.106644-0.341332 12.074633 0 12.910898 1.10933 35.728968 5.427185 52.326256 8.046911 47.641469 7.517846 100.633323 17.06662 140.884946 44.279345l-0.196266 7.756779c-4.002122 4.206922-39.551891-15.180758-47.948668-17.971151-14.711426-4.889587-35.950834-9.779173-51.396126-13.004764-23.987134-5.00052-49.151865-9.54024-73.540064-8.977042v62.395562c0 4.198388 11.818634 23.628735 14.156761 30.122583 4.659187 12.979164 8.362644 26.231395 13.320497 39.125226 1.757862 4.582387-1.33973 6.638915 6.195183 4.761587 15.027159-3.746123 30.745515-14.728493 46.916137-17.578618l3.925323-4.104522c-6.434116-4.89812-9.343974-9.710907-8.029845-18.107684 13.27783 1.18613 15.85489 16.88742 32.196178 12.057567l-16.093822-24.140734c14.38716-3.063458 21.751407 13.183964 34.141773 12.253833 10.470371-0.785065 47.564669-29.10712 54.50225-38.340161 9.838906-13.098631 11.050636-17.979684-0.093866-30.276183-42.291084-46.668672-127.735115-81.399243-189.08108-98.730395-22.451138-6.340249-56.234512-15.93169-78.685651-17.919951-99.831192-8.857576-198.732253 2.389327-295.773053 28.091656zM205.738101 456.020079c6.587715 42.530016 16.042623 67.950746 50.235595 96.682401 108.031703 90.785884 360.293409 89.77042 440.847854-36.309233 13.115697-20.531144 19.558346-30.591916 20.130078-56.353979 6.459716-4.070389 4.829853-19.652213 4.198389-26.342327-4.334921-46.114007-31.53058-85.734164-36.4031-120.575669-3.208525-22.988737 4.983453-48.076668-4.215455-70.246207-6.442649-1.13493-13.610629 0.708265-19.933812-0.196266-7.918912-1.13493-13.311963-3.53279-24.149267-4.027722-107.374638-4.87252-222.634054 5.853851-327.132967 29.10712-25.454863 5.666118-50.406261 14.182361-75.545392 21.060209l-3.524257 4.531187c3.464524 25.557263-9.489041 45.712941-15.479424 69.051544-6.732781 26.231395-15.658624 61.149699-13.115698 87.807758 0.460799 4.804253 4.036256 5.461318 4.087456 5.811184z m20.121545 305.927692c-0.281599-2.833059 0.460799-5.734384-1.800529-8.140777-35.438836-29.10712-79.752314-18.363683-96.870133 24.1834-26.231395 65.194487 28.458588 137.719088 98.679195 128.870045 2.653859-11.861301-2.773326-21.819673-4.036256-32.204711-3.959456-32.674043-3.865589-58.11184 0.068267-90.487218 0.913064-7.492246 4.940786-12.2197 3.950922-22.220739z" fill="#4D2B25" p-id="2481"></path><path d="M636.43985 238.65961c1.587196 6.946114 9.207441 8.123711 14.532226 11.827168 4.881053 0.870398 8.644243-3.327991 9.617041-7.807979 6.323183 0.904531 13.491163-0.938664 19.933812 0.196266 9.198908 22.169539 1.006931 47.25747 4.215455 70.246207 4.87252 34.850037 32.068178 74.470195 36.4031 120.575669 0.631465 6.690115 2.261327 22.271939-4.198389 26.342327 0.170666-7.637312 1.484796-17.527418-1.911461-24.2602-5.90505-11.699168-24.857532-22.94607-38.340162-24.046867-3.165858-7.21918-15.231958-4.155722-21.290608-3.165858-15.769557 2.585593-29.200986 10.274105-43.110281 15.240492-17.058086 6.08425-25.070864 9.429307-44.279345 8.046911-17.945551-1.28853-14.796759-7.671446-26.094862-16.170622-26.666593-20.070345-49.55293-30.557783-82.730439-18.184484-22.698604 8.465043-41.25002 35.01217-66.346484 38.314562-6.613315 0.870398-17.416485 0.878931-24.021267 0-9.497574-1.271463-31.206314-8.738109-42.33375-12.006367-2.798926-0.819198-10.572771-6.553582-16.102356-8.046912-22.075673-5.98185-42.794549-10.325305-64.545956-2.150394-18.585549 6.980247-33.058042 23.867668-40.11509 42.402017-0.0512-0.349866-3.63519-1.015464-4.087455-5.811184-2.534393-26.65806 6.382916-61.576364 13.115697-87.807759 5.990384-23.338602 18.943948-43.49428 15.479424-69.051543l3.524257-4.531188c25.139131-6.877848 50.090529-15.394091 75.545392-21.060208 104.498913-23.253269 219.758329-33.97964 327.132967-29.10712z m-214.075145 57.062243c-4.642121-4.77012-30.037251-13.550896-36.770032-12.356232-44.151345 18.670882-4.377588 61.610497 30.958848 51.387592 13.704496-4.386121 13.491163-31.138048 5.802651-39.03136z m132.223637-12.1173c-21.418608 4.684787-33.97964 34.448972-12.236767 47.129471 32.366844 9.326908 68.735811-21.81114 39.236159-47.291603-8.63571-0.588798-18.585549-1.681062-26.999392 0.153599z m74.470195 95.914403c0-22.604738-18.321016-40.925754-40.925754-40.925754s-40.925754 18.321016-40.925754 40.925754 18.321016 40.925754 40.925754 40.925754 40.925754-18.321016 40.925754-40.925754z m-206.352499 3.601057c0-22.451138-18.20155-40.652688-40.652689-40.652688s-40.652688 18.20155-40.652688 40.652688 18.20155 40.652688 40.652688 40.652688 40.652688-18.20155 40.652689-40.652688z" fill="#F7C17C" p-id="2482"></path><path d="M568.011238 431.870812c8.678376 12.236766 5.836784 28.134323 9.84744 40.473489 1.962661 6.050117 25.29273 38.067095 30.489516 41.966818 6.860781 5.154119 28.603655 9.523174 37.973229 10.299705 12.1685 1.006931 21.879406-3.993589 32.443644-1.570129l18.056483-6.638915c-80.554445 126.079653-332.816151 127.095117-440.847854 36.309233-34.192973-28.740188-43.64788-54.160918-50.235595-96.6824 7.057047-18.534349 21.529541-35.421769 40.11509-42.402017 21.751407-8.174911 42.470283-3.831456 64.545955 2.150394 2.184527 12.2453-6.169583 7.756779-14.062894 8.055444-7.475179 0.281599-16.86182-1.382396-23.603135 0.563199-1.698129 0.494932-28.04899 15.667157-30.668716 17.638351-9.890106 7.441046-17.834618 39.970023-16.204755 52.23239 1.28853 9.69384 15.658624 31.888979 24.098067 36.3007 10.683704 5.580785 38.297495 7.620246 50.372128 5.973317 3.549857-0.486399 30.301783-14.020228 32.272978-16.025556 3.976522-4.053322 17.774884-32.87031 17.373819-37.53803-0.955731-11.221302-13.183964-34.466039-19.370614-45.124142-1.988261-3.430391-14.805293-9.787706-4.104522-14.003162 11.127436 3.276791 32.836176 10.734904 42.33375 12.006367 6.596249 0.878931 17.407952 0.870398 24.021268 0 25.096464-3.302391 43.64788-29.840985 66.346484-38.314561 33.177509-12.381833 56.063846-1.885861 82.730439 18.184483 11.298102 8.499177 8.140778 14.882092 26.094862 16.170622z m-48.887332-19.541279c-8.209044-8.217577-58.026507-8.209044-65.945419 7.338646l-2.107727 6.13545c-1.228797 9.292774 11.212769 21.316208 18.833014 25.685263 8.900242 5.102919 20.181278 2.687993 21.751407 14.472493 1.791995 13.397296 3.157325 40.328422-14.165294 42.555617-13.27783 1.706662-36.070301-15.359958-22.254872 9.966906 12.347699 5.512518 21.043142 7.543446 33.527374 1.169063 16.093822-8.217577 14.378627-30.378583 38.630294-23.005803l6.425582 11.690634 10.018106-6.024517c-14.523693-16.418088 4.548254-25.181797-4.070389-42.25695l-11.9893-0.042667-1.774929 16.375422-16.392488 7.705579c-3.780256 1.220263-8.43091-26.53006-5.614918-31.726846 17.954084-1.791995 26.726327-28.450055 15.138092-40.046824z" fill="#FAF0DF" p-id="2483"></path><path d="M877.958119 274.883511l-8.046911 4.027722c-40.251623-27.212725-93.243477-36.761499-140.884946-44.279345-4.411721-4.812787-10.026639-5.077319-16.213289-9.958373-9.019709-7.11678-19.455946-24.345533-29.960451-26.393527-23.500735-4.565321 1.433596 19.029281 7.935978 24.268733L676.691472 226.576444c-3.967989-0.341332-8.081044 0.196266-12.074633 0-5.111453-6.408516-24.994065-30.259117-30.412716-31.974312-4.84692-1.535996-13.269297-0.972797-9.830373 5.794117 3.68639 7.24478 17.314086 13.218097 20.121544 22.143939-13.38023 0.0512-26.871393-0.034133-40.251622 0.008533-40.763621 0.128-84.334701 1.015464-124.782591 4.027723-13.687429 2.466127-6.766915-10.410638-7.927444-18.244217-1.03253-6.971714-4.863987-11.05917-12.1941-9.932773-0.631465 7.202114 0.307199 14.310361 0.776531 21.486875 0.452265 7.039981 7.790912 2.858659-4.804253 10.717837-6.613315 0.375466-13.627696-0.639998-20.130078 0 6.818115-7.202114 6.707182-40.234556-6.024517-36.223901-9.284241 2.926925-5.768517 22.212206-5.273586 29.533786 0.477865 7.082647 7.748245 2.867192-4.804253 10.709304-39.722557 4.991986-81.774708 11.281036-120.754868 20.130078-12.458632 1.416529-7.466646-2.594126-3.293858-9.326908 3.76319-6.075717 7.415446-10.700771 10.675171-17.501818 2.39786-5.00052 9.66824-14.199428 0.674131-17.450619 4.514121-6.963181 8.891709-15.709823 8.046912-24.149267 97.049333-25.702329 195.950394-36.949232 295.773053-28.091656 22.451138 1.988261 56.234512 11.579701 78.68565 17.919951 61.345965 17.331152 146.789996 52.061723 189.08108 98.730395z" fill="#F5CC85" p-id="2484"></path><path d="M604.226605 109.849298c-10.888503-3.199991-27.042059-7.406913-38.058562-8.226111-69.691542-5.188252-149.000124 1.433596-216.609538 17.203153-28.339122 6.613315-57.156109 14.685826-83.438703 27.246858-2.867192-3.234124 20.326344-50.824394 24.686865-57.821707 27.076192-43.408947 73.173132-63.368359 122.299397-70.911805 79.991247-12.279433 144.844402 5.444252 186.384554 79.129382 2.542926 4.514121 5.836784 7.688512 4.727454 13.371697z m-76.475523-64.409423l-6.425582-11.682101-21.75994-0.383999v12.0661h28.176989z m24.166334 16.119422l-22.229273-4.292254-22.050072 6.289049c8.413844 9.361041 26.512994 6.613315 38.263361 6.041583 7.842112-0.383999 6.340249 0.511999 6.015984-8.038378z m-201.27518 4.019189c-12.347699 1.911461-33.040976 4.838387-40.251623 16.085289 11.451702-0.887464 40.174823 0.733865 40.251623-16.085289z m-8.055445 28.17699c-2.670926-2.312527-55.236115 10.333838-56.345445 24.140733l19.771679-0.563198 2.585593-7.765312c7.551979 10.93117 41.139087-9.61704 33.988173-15.812223z" fill="#F4CC85" p-id="2485"></path><path d="M877.958119 274.883511c11.144503 12.2965 9.932773 17.177553 0.093866 30.276183-6.929048 9.224508-44.031879 37.555097-54.50225 38.340161-12.390366 0.921597-19.754612-15.317291-34.141773-12.253833l16.093823 24.140734c-16.341288 4.829853-18.918348-10.871437-32.196178-12.057567-1.31413 8.396777 1.595729 13.209564 8.029844 18.107684l-3.925322 4.104522c-16.170622 2.850125-31.888979 13.832495-46.916138 17.578618-7.543446 1.877328-4.437321-0.1792-6.195183-4.761587-4.957853-12.893831-8.66131-26.154595-13.320497-39.125226-2.329594-6.493849-14.156761-25.924195-14.156761-30.122583v-62.395562c24.3882-0.563198 49.55293 3.976522 73.540065 8.977042 15.453824 3.225591 36.684699 8.106644 51.396125 13.004764 8.396777 2.790392 43.938013 22.186606 47.948668 17.971151l0.196266-7.756779 8.046912-4.027722z" fill="#D9A967" p-id="2486"></path><path d="M48.750799 363.442201l8.072511 10.086372c43.298014-40.268689 102.595985-58.103307 156.953169-78.514984 2.201594 47.991335-29.320453 91.96348-24.149267 140.884946-36.804165-4.300788-73.847264-11.485835-108.680235-24.157801 3.848523-5.606385 42.717749-26.393527 22.126873-32.196178-6.340249-1.791995-27.86979 25.045264-38.229228 24.149267-8.797842-4.625054-17.988217-5.401585-24.149267-16.102356l3.592523-2.37226c-0.119466-10.794637-0.196266-13.806895 4.462921-21.78554z" fill="#D8A865" p-id="2487"></path><path d="M616.045239 122.188464l8.311444 23.884734c-15.889023 3.58399-32.281511-3.515724-46.114007-4.198388-81.416309-4.002122-173.849122 5.367452-252.927304 25.164731-25.378064 6.357316-49.971063 16.853287-75.30646 23.304469l11.895434-30.361517c21.495408-5.802651 42.128951-15.112492 63.547559-20.974875 80.136313-21.947673 182.493365-32.272978 264.617939-21.034609 8.081044 1.10933 16.145022 6.195183 25.966862 4.215455z" fill="#E7674A" p-id="2488"></path><path d="M314.418335 186.333354c0.836264 8.439443-3.541324 17.186086-8.046911 24.149267-0.358399 0.554665-4.044789 1.117864-5.870917 4.027722-9.958373 15.90609-17.373819 31.906046-26.333794 48.298534-7.901845 2.039461-18.474616 2.406393-24.149267 4.027723-9.318374-2.850125 0.793598-10.87997 3.327991-14.788226 6.852248-10.555704 13.730096-21.102875 20.812742-31.513514-0.017067-3.490124-7.756779-2.57706-9.958372-1.911461-3.199991 0.964264-37.896429 46.719872-34.312439 56.260112-12.398899 3.839989-29.20952 8.072511-40.251623 12.074633-8.055445-1.732262 4.189855-9.992506 6.03305-12.083167 8.866109-10.052239 15.957289-21.333275 26.154595-30.199383 3.438924-6.775448-4.983453-7.338646-9.830373-5.794118-11.690635 3.71199-35.797235 43.827079-42.495883 56.123579-26.55566 10.487438-78.472318 32.89591-100.633323 48.307068l-2.815993-1.928528-1.21173-10.146106c67.694747-75.989124 152.251315-119.133539 249.565181-144.912668z" fill="#F6D18E" p-id="2489"></path><path d="M676.691472 411.749268c13.48263 1.100797 32.435111 12.347699 38.340162 24.046867 3.396257 6.732781 2.082128 16.622888 1.911461 24.2602-0.563198 25.762062-7.005847 35.822835-20.130078 56.353978l-18.056484 6.638915c-10.564238-2.42346-20.275144 2.57706-32.443644 1.570129-9.378108-0.776531-31.112448-5.145586-37.973229-10.299705-5.196786-3.899723-28.526855-35.925235-30.489516-41.966818-4.002122-12.339166-1.169063-28.236722-9.847439-40.473488 19.208481 1.382396 27.221258-1.962661 44.279345-8.046912 14.259161-0.605865 6.399982 2.013861 1.937061 7.970112-11.682101 15.581824-21.111409 38.860693-7.893312 56.353978 13.465563 17.817551 39.637224 18.244216 60.390234 20.300744l30.327383-18.517282c-6.818115-10.922637 1.407996-19.33648-0.204799-31.888979-2.466127-19.199947-26.205795-38.314561-44.287878-42.28255-1.015464-6.681582 5.512518-3.81439 10.171705-4.010656 4.522654-0.187733 9.514641-0.366932 13.977562 0z" fill="#FAE3CC" p-id="2490"></path><path d="M169.505667 295.013589c6.690115-12.305033 30.796715-52.420123 42.495883-56.123579 4.84692-1.535996 13.269297-0.981331 9.830373 5.794117-10.205839 8.866109-17.297019 20.147145-26.154594 30.199384-1.843195 2.090661-14.088495 10.342372-6.033051 12.083167-5.836784 2.116261-13.704496 5.512518-20.130077 8.046911z" fill="#E5AE67" p-id="2491"></path><path d="M729.017729 234.631888c-16.605821-2.619726-39.415358-6.937581-52.326257-8.046911l14.097028-4.027722c-6.502382-5.239452-31.436714-28.834054-7.935978-24.268734 10.504504 2.039461 20.940742 19.268214 29.960451 26.393528 6.18665 4.881053 11.801568 5.145586 16.213289 9.958372z" fill="#E2AD67" p-id="2492"></path><path d="M229.887368 274.883511c-3.592523-9.54024 31.112448-55.295848 34.312439-56.260112 2.210127-0.665598 9.949839-1.578662 9.958372 1.911461-7.082647 10.410638-13.960495 20.957809-20.812742 31.513514-2.534393 3.899723-12.654899 11.929567-3.327991 14.788226-4.189855 1.194663-12.706098 5.751451-20.130078 8.046911z" fill="#E1AA67" p-id="2493"></path><path d="M664.616839 226.584977c-19.967945-0.964264-41.053754 2.312527-60.381701-1.928528v-2.099194c13.388763-0.042667 26.871393 0.034133 40.251623-0.008534-2.807459-8.925842-16.435155-14.899159-20.121545-22.143939-3.447457-6.775448 4.97492-7.338646 9.830373-5.794117 5.427185 1.723729 25.309797 25.565796 30.412717 31.974312z" fill="#DFAD6D" p-id="2494"></path><path d="M306.362891 210.482621c8.994109 3.251191 1.723729 12.441566-0.674132 17.450619-3.251191 6.792515-6.903448 11.426102-10.67517 17.501818-4.181322 6.741315-9.164775 10.743437 3.293857 9.326908-5.358919 1.220263-15.974356 5.939184-24.149267 8.046911 8.959975-16.392488 16.375422-32.392444 26.333795-48.298534 1.826128-2.909859 5.512518-3.473057 5.870917-4.027722z" fill="#E3B172" p-id="2495"></path><path d="M435.173203 230.604166c-0.878931 0.085333-8.755176 3.106125-16.102355 4.027722 12.552499-7.850645 5.282119-3.63519 4.804253-10.709304-0.494932-7.330113-4.010656-26.60686 5.273586-29.533785 12.731698-4.010656 12.842631 29.021787 6.024516 36.2239z" fill="#E4B16E" p-id="2496"></path><path d="M80.946977 411.749268c-8.652776-3.148791-9.881573-4.778654-16.102355-8.046912 10.350905 0.895998 31.888979-25.932729 38.229228-24.149266 20.590877 5.811184-18.27835 26.589794-22.126873 32.196178z" fill="#C0884F" p-id="2497"></path><path d="M68.872344 343.312123c-5.119986 3.55839-16.819154 14.46396-20.130078 20.130078-4.659187 7.978645-4.582387 10.98237-4.462921 21.78554l-3.592524 2.37226c-10.965303-19.029281 3.81439-35.959368 16.017023-50.534261 2.679459-3.199991 6.877848-4.411721 8.132244-5.819718l1.21173 10.146106 2.815993 1.928528z" fill="#EAC07B" p-id="2498"></path><path d="M455.303281 230.604166c12.595165-7.850645 5.256519-3.677857 4.804254-10.717837-0.460799-7.176514-1.407996-14.284761-0.776531-21.486875 7.330113-1.126397 11.161569 2.952525 12.194099 9.932773 1.16053 7.833578-5.759984 20.710343 7.927445 18.244217-3.942389 0.290133-14.395694 3.473057-24.149267 4.027722z" fill="#E0AF6F" p-id="2499"></path><path d="M660.589117 242.687333c-0.972797 4.479988-4.735987 8.678376-9.617041 7.807978-5.324785-3.71199-12.953564-4.889587-14.532226-11.827167 10.845837 0.494932 16.230355 2.892792 24.149267 4.027722z" fill="#D9C0A6" p-id="2500"></path><path d="M326.492969 423.823901c-10.692237 4.215455 2.116261 10.572771 4.104522 14.003162 6.18665 10.658104 18.414883 33.90284 19.370613 45.124142 0.401066 4.66772-13.397296 33.484708-17.373819 37.53803-1.971195 2.013861-28.731654 15.547691-32.272978 16.025556-12.074633 1.646929-39.688424-0.392532-50.372128-5.973317-8.439443-4.411721-22.809537-26.60686-24.098067-36.3007-1.629862-12.253833 6.314649-44.791343 16.204756-52.23239 2.619726-1.971195 28.970587-17.14342 30.668715-17.638351 6.741315-1.945595 16.127956-0.281599 23.603135-0.563198 7.893312-0.298666 16.247422 4.189855 14.062895-8.055445 5.529585 1.501863 13.30343 7.227713 16.102356 8.046911z m-45.678808 12.689032c-4.71892 1.05813-23.526335 9.804773-26.931126 13.320497-13.439963 13.875162-17.075153 33.817507-5.777051 50.363594 2.047994 3.003725 15.658624 17.177553 17.902884 18.321017 18.218617 9.284241 53.597719-4.479988 62.591828-22.135406 6.399982-12.578099-1.433596-39.824957-12.108766-48.4692-9.56584-7.748245-23.347136-14.165294-35.686302-11.391969z" fill="#FADEC5" p-id="2501"></path><path d="M629.058537 379.518956c0 22.604738-18.321016 40.925754-40.925754 40.925754s-40.925754-18.321016-40.925754-40.925754 18.321016-40.925754 40.925754-40.925754 40.925754 18.321016 40.925754 40.925754z m-47.999868-15.49649c0-6.886381-5.580785-12.458632-12.458633-12.458633s-12.458632 5.580785-12.458632 12.458633 5.580785 12.458632 12.458632 12.458632 12.458632-5.580785 12.458633-12.458632z" fill="#5B352B" p-id="2502"></path><path d="M422.706038 383.120013c0 22.451138-18.20155 40.652688-40.652689 40.652688s-40.652688-18.20155-40.652688-40.652688 18.20155-40.652688 40.652688-40.652688 40.652688 18.20155 40.652689 40.652688z m-46.941738-15.069825c0-6.886381-5.580785-12.458632-12.458632-12.458633s-12.458632 5.580785-12.458633 12.458633 5.580785 12.458632 12.458633 12.458632 12.458632-5.580785 12.458632-12.458632z" fill="#5A322B" p-id="2503"></path><path d="M676.691472 411.749268c-4.454388-0.366932-9.454907-0.187733-13.977561 0-4.659187 0.196266-11.187169-2.670926-10.171705 4.010655 18.082084 3.967989 41.821752 23.082603 44.287878 42.282551 1.612796 12.552499-6.613315 20.966342 0.204799 31.888979l-30.327383 18.517282c-20.75301-2.056528-46.924671-2.483193-60.390234-20.300744-13.218097-17.493285-3.78879-40.772155 7.893312-56.353978 4.471454-5.95625 12.322099-8.58451-1.937062-7.970112 13.917828-4.966386 27.340725-12.646365 43.110282-15.240491 6.05865-0.989864 18.12475-4.061855 21.290608 3.165858z m-0.477865 75.997657l8.652776-21.666073c-7.671446-38.74976-63.812091-51.515592-67.88248-3.251191-0.819198 9.753573 14.46396 23.15087 21.96474 28.90232l37.256431-3.993589z" fill="#F9D2B6" p-id="2504"></path><path d="M422.364705 295.721853c7.688512 7.893312 7.901845 34.645238-5.802651 39.03136-35.336436 10.222905-75.118727-32.71671-30.958848-51.387592 6.732781-1.203197 32.119378 7.586112 36.770032 12.356232z" fill="#F5EFDB" p-id="2505"></path><path d="M554.588342 283.604553c8.413844-1.843195 18.363683-0.742398 26.999392-0.153599 29.499652 25.480463-6.869314 56.609978-39.236159 47.291603-21.742874-12.680498-9.181841-42.444683 12.236767-47.12947z" fill="#F6EFDA" p-id="2506"></path><path d="M519.123906 412.329533c11.588235 11.596768 2.815992 38.254828-15.138092 40.046823-2.815992 5.196786 1.834662 32.947109 5.614918 31.726846l16.392488-7.705579 1.774929-16.375421 11.9893 0.042666c8.618643 17.075153-10.444771 25.830329 4.070389 42.256951l-10.018106 6.024516-6.425582-11.690634c-24.251667-7.37278-22.536471 14.788226-38.630294 23.005803-12.484232 6.374382-21.179675 4.343455-33.527375-1.169063-13.815429-25.326864 8.977042-8.260244 22.254873-9.966906 17.331152-2.227194 15.957289-29.15832 14.165294-42.555616-1.578662-11.793034-12.851165-9.369574-21.751407-14.472494-7.620246-4.369055-20.061811-16.392488-18.833015-25.685263l2.107728-6.135449c7.918912-15.556224 57.736375-15.556224 65.945418-7.338647z" fill="#553029" p-id="2507"></path><path d="M342.586791 93.755476c7.150914 6.195183-26.436194 26.743393-33.988173 15.812223l-2.585593 7.765312-19.771679 0.563198c1.117864-13.806895 53.674519-26.453261 56.345445-24.140733z" fill="#E6B26E" p-id="2508"></path><path d="M551.917416 61.559297c0.332799 8.550376 1.826128 7.654379-6.015984 8.038378-11.758901 0.571732-29.849518 3.319458-38.263361-6.041583l22.050072-6.289049 22.229273 4.292254z" fill="#DAA963" p-id="2509"></path><path d="M350.642236 65.578486c-0.0768 16.819154-28.799921 15.197825-40.251623 16.085289 7.202114-11.246902 27.89539-14.173828 40.251623-16.085289z" fill="#E1AD69" p-id="2510"></path><path d="M527.751082 45.439875h-28.176989V33.373775l21.751407 0.383999 6.425582 11.682101z" fill="#DFAE64" p-id="2511"></path><path d="M280.814161 436.512933c12.339166-2.764792 26.120462 3.643723 35.686302 11.391969 10.675171 8.644243 18.508749 35.891101 12.108767 48.4692-8.994109 17.655418-44.373211 31.42818-62.591828 22.135405-2.24426-1.143464-15.85489-15.325825-17.902884-18.321016-11.306636-16.537555-7.662912-36.4799 5.77705-50.363595 3.404791-3.515724 22.203672-12.262366 26.931126-13.320496z m-4.138655 11.972234c-2.184527 0.639998-19.583946 17.288486-20.718877 19.515679-9.608507 18.909815 5.947717 36.147101 24.191934 40.396689 12.970631-4.010656 24.081-3.950922 32.358311-16.051156 10.239972-23.517802-10.154639-51.413192-35.831368-43.869746z" fill="#FACFB4" p-id="2512"></path><path d="M568.591503 364.022466m-12.458632 0a12.458632 12.458632 0 1 0 24.917264 0 12.458632 12.458632 0 1 0-24.917264 0Z" fill="#F3F0EC" p-id="2513"></path><path d="M363.305668 368.050188m-12.458633 0a12.458632 12.458632 0 1 0 24.917265 0 12.458632 12.458632 0 1 0-24.917265 0Z" fill="#EDEBEB" p-id="2514"></path><path d="M676.213607 487.746925l-37.256431 3.993589c-7.509313-5.751451-22.792471-19.157281-21.964739-28.90232 4.061855-48.264401 60.211034-35.498569 67.88248 3.251191l-8.652777 21.666074z" fill="#FAC1A2" p-id="2515"></path><path d="M276.675506 448.485167c25.676729-7.543446 46.07134 20.351944 35.831368 43.869746-8.277311 12.100233-19.38768 12.0405-32.358311 16.051156-18.244216-4.249588-33.80044-21.486874-24.191934-40.396689 1.13493-2.235727 18.534349-18.875681 20.718877-19.51568z" fill="#FAC0A2" p-id="2516"></path></svg>